<mxfile host="app.diagrams.net" modified="2023-05-06T14:28:23.717Z" agent="Mozilla/5.0 (X11; Linux x86_64; rv:102.0) Gecko/20100101 Firefox/102.0" etag="_hVkBHuOYzia_ip5vvK3" version="21.2.9" type="github">
  <diagram name="Page-1" id="4MP_wHTS5IgblKxHbQpP">
    <mxGraphModel dx="1420" dy="735" grid="1" gridSize="10" guides="1" tooltips="1" connect="1" arrows="1" fold="1" page="1" pageScale="1" pageWidth="850" pageHeight="1100" math="0" shadow="0">
      <root>
        <mxCell id="0" />
        <mxCell id="1" parent="0" />
        <mxCell id="bcS_UFgCMEz7GKeuc2ld-8" value="" style="verticalLabelPosition=bottom;verticalAlign=top;html=1;shape=mxgraph.basic.polygon;polyCoords=[[0.25,0],[0.75,0],[1,0.33],[1,0.75],[0.75,1],[0.25,1],[0,1],[0,0.25]];polyline=0;" vertex="1" parent="1">
          <mxGeometry x="160" y="500" width="500" height="420" as="geometry" />
        </mxCell>
      </root>
    </mxGraphModel>
  </diagram>
</mxfile>
